<?xml version="1.0" standalone="no"?>
<!DOCTYPE svg PUBLIC "-//W3C//DTD SVG 20010904//EN"
 "http://www.w3.org/TR/2001/REC-SVG-20010904/DTD/svg10.dtd">
<svg version="1.0" xmlns="http://www.w3.org/2000/svg"
 width="612.000000pt" height="375.000000pt" viewBox="0 0 612.000000 375.000000"
 preserveAspectRatio="xMidYMid meet">

<g transform="translate(0.000000,375.000000) scale(0.100000,-0.100000)"
fill="#000000" stroke="none">
<path d="M4105 3120 c-504 -18 -895 -54 -1194 -111 -293 -56 -398 -93 -568
-202 -189 -121 -718 -439 -788 -474 -56 -28 -198 -79 -275 -98 -36 -9 -70 -21
-76 -26 -6 -5 -13 -6 -16 -3 -5 4 -68 -11 -200 -48 -22 -6 -35 -15 -31 -21 3
-6 1 -7 -6 -3 -14 9 -183 -43 -176 -54 2 -4 19 -10 36 -14 46 -9 94 -63 115
-129 17 -55 17 -60 1 -90 -12 -21 -47 -51 -100 -84 -81 -50 -377 -198 -448
-223 -28 -10 -39 -22 -49 -49 -17 -50 -25 -492 -11 -596 6 -44 13 -92 14 -107
2 -16 12 -37 22 -48 18 -20 29 -21 199 -20 130 1 182 -2 184 -10 3 -9 -39 -10
-169 -6 l-174 6 60 -21 c43 -15 95 -23 187 -26 113 -5 128 -8 133 -24 16 -49
120 -163 200 -218 78 -55 229 -101 327 -101 127 0 295 65 391 151 60 53 136
160 158 222 8 24 21 39 34 42 11 2 349 6 750 9 402 4 963 9 1247 13 504 6 518
6 523 -13 3 -10 22 -53 43 -94 42 -85 146 -199 225 -244 324 -189 732 -41 864
313 l20 55 59 -3 c97 -4 109 5 138 101 50 168 70 362 56 552 -15 202 -50 297
-184 491 -55 79 -70 112 -125 275 -34 102 -66 194 -71 205 -9 19 -20 50 -55
148 -8 23 -20 50 -25 59 -6 10 -10 23 -10 30 0 7 -6 24 -13 38 -7 14 -22 48
-32 77 -10 29 -23 49 -28 46 -6 -4 -7 -1 -3 6 11 17 -96 230 -133 265 -27 26
-37 29 -177 42 -198 18 -553 24 -849 14z m-605 -410 c19 -15 89 -64 155 -110
66 -46 138 -96 160 -112 66 -47 206 -146 262 -184 60 -41 57 -62 -9 -56 -32 4
-125 61 -488 303 -247 164 -451 303 -454 308 -4 5 15 12 41 16 27 3 55 7 63 9
13 2 179 -105 270 -174z m-458 72 c36 -26 112 -81 168 -122 56 -41 111 -82
123 -90 42 -28 182 -133 192 -143 14 -14 5 -9 -95 50 -47 28 -114 67 -150 87
-36 20 -74 42 -85 49 -115 70 -149 89 -163 95 -9 4 -51 27 -92 52 l-75 44 40
12 c60 19 65 18 137 -34z m-589 -281 c24 -9 25 -12 26 -124 1 -65 -2 -118 -8
-121 -5 -3 -64 -9 -132 -13 -112 -6 -123 -5 -135 12 -18 25 -18 87 0 130 38
89 165 148 249 116z m-423 -741 c11 -179 24 -404 30 -500 14 -242 37 -352 85
-408 20 -24 21 -24 170 -18 83 3 375 11 650 17 l500 11 55 31 c63 36 220 143
235 160 6 7 26 24 45 38 55 42 134 122 231 235 115 134 249 399 299 593 11 42
18 60 16 41 -9 -68 -33 -166 -61 -245 -30 -85 -120 -271 -142 -293 -7 -7 -20
-26 -30 -42 -9 -17 -21 -30 -25 -30 -4 0 -8 -5 -8 -11 0 -34 -205 -252 -321
-339 -18 -14 -38 -31 -45 -37 -7 -7 -17 -13 -23 -13 -6 0 -11 -4 -11 -8 0 -4
-13 -16 -30 -25 -16 -10 -35 -23 -42 -30 -16 -15 -82 -53 -123 -72 -24 -10
-177 -15 -725 -20 l-695 -7 -12 29 c-55 127 -80 429 -69 843 6 259 18 485 23
445 1 -11 12 -166 23 -345z m1902 203 l-4 -38 -136 2 -137 2 -3 40 -3 40 138
3 c76 2 140 0 143 -4 3 -4 4 -24 2 -45z m1159 -32 c47 -29 69 -68 69 -126 0
-146 -159 -207 -261 -99 -21 22 -24 35 -24 98 0 77 6 90 64 128 35 24 112 23
152 -1z m-3637 -659 c75 -35 143 -103 181 -180 37 -74 46 -195 21 -274 -52
-163 -191 -264 -361 -262 -68 0 -90 5 -146 32 -194 93 -273 324 -177 516 46
90 158 176 257 197 65 14 159 2 225 -29z m3662 7 c81 -31 172 -121 204 -204
33 -85 33 -207 0 -290 -48 -122 -173 -215 -313 -231 -155 -18 -319 88 -377
243 -32 87 -26 215 14 298 88 179 283 254 472 184z"/>
<path d="M4935 1893 c-35 -37 -46 -66 -39 -105 14 -73 68 -114 136 -105 104
14 139 143 57 211 -44 38 -118 37 -154 -1z"/>
<path d="M1225 1269 c-4 -5 1 -42 10 -82 9 -40 18 -81 20 -93 4 -17 12 -20 47
-19 l42 1 18 85 c26 127 30 119 -56 119 -42 0 -78 -5 -81 -11z"/>
<path d="M1058 1179 c-27 -27 -48 -56 -45 -62 4 -15 137 -106 155 -106 7 -1
23 11 36 26 l23 26 -51 84 c-28 45 -55 83 -60 83 -5 0 -32 -23 -58 -51z"/>
<path d="M1435 1159 c-62 -95 -62 -96 -31 -128 l27 -29 85 55 84 55 -19 27
c-18 25 -47 52 -83 80 -15 11 -22 4 -63 -60z"/>
<path d="M956 975 c-4 -20 -4 -56 0 -80 7 -52 6 -52 119 -27 l80 18 3 42 c3
45 7 43 -118 71 -71 16 -77 15 -84 -24z"/>
<path d="M1560 998 c-122 -26 -120 -25 -118 -68 1 -44 1 -44 132 -70 69 -14
76 -9 76 60 0 92 -5 96 -90 78z"/>
<path d="M1402 828 l-30 -30 52 -84 c28 -46 54 -83 58 -84 11 0 76 59 98 90
l20 28 -84 54 -84 55 -30 -29z"/>
<path d="M1083 802 c-40 -26 -73 -53 -73 -61 0 -15 94 -111 108 -111 5 0 31
38 59 84 l51 84 -27 26 c-15 14 -31 26 -37 25 -5 0 -42 -21 -81 -47z"/>
<path d="M1241 695 c-12 -49 -21 -96 -21 -102 0 -9 23 -13 80 -13 92 0 87 -7
65 102 -23 108 -20 104 -64 104 l-39 0 -21 -91z"/>
<path d="M4897 1273 c-2 -5 6 -50 17 -102 l22 -93 41 -2 40 -2 22 94 c11 52
18 98 15 103 -6 11 -151 12 -157 2z"/>
<path d="M4764 1208 c-32 -25 -59 -54 -74 -79 -8 -14 4 -26 68 -68 43 -28 83
-51 88 -51 10 0 54 45 54 54 0 6 -89 149 -98 158 -5 5 -22 -2 -38 -14z"/>
<path d="M5123 1181 c-18 -27 -42 -65 -53 -84 l-21 -35 26 -26 c14 -14 30 -26
34 -26 16 0 161 100 161 110 0 13 -95 110 -107 110 -5 0 -23 -22 -40 -49z"/>
<path d="M4637 1003 c-10 -9 -8 -126 2 -141 6 -11 25 -10 99 5 l90 18 5 40 c2
22 3 42 1 43 -3 4 -164 41 -180 42 -6 0 -14 -3 -17 -7z"/>
<path d="M5235 999 c-120 -28 -116 -26 -113 -71 l3 -42 80 -18 c122 -27 115
-31 115 62 0 90 1 89 -85 69z"/>
<path d="M4765 804 c-39 -26 -74 -50 -79 -55 -8 -7 89 -119 105 -119 9 0 65
84 93 139 15 29 15 32 -6 56 -12 14 -26 25 -32 25 -6 0 -43 -21 -81 -46z"/>
<path d="M5072 824 l-23 -25 52 -85 c28 -46 56 -84 61 -84 14 0 108 98 108
112 -1 14 -129 98 -158 103 -9 2 -27 -8 -40 -21z"/>
<path d="M4934 775 c-10 -29 -34 -150 -34 -171 0 -23 2 -24 80 -24 44 0 80 3
80 8 0 4 -10 50 -21 103 l-22 97 -40 -2 c-21 0 -41 -5 -43 -11z"/>
</g>
</svg>
